# xmcd CD database file
#
# Track frame offsets:
#	150
#	18554
#	34569
#	52747
#	73946
#	83880
#	101632
#	109158
#	126482
#	140964
#	160323
#	175736
#
# Disc length: 2648 seconds
#
# Revision: 2
# Processed by: cddbd v1.4b41PL1 Copyright (c) Steve Scherf et al.
# Submitted via: Feurio! 1.60 - http://www.feurio.com
#
DISCID=a80a560c,ae0a560c
DTITLE=Morcheeba - Fragments of freedom
DYEAR=1900
DGENRE=
TTITLE0=World looking in
TTITLE1=Rome wasn't built in a day
TTITLE2=Love is rare
TTITLE3=Let it go
TTITLE4=A well deserved break
TTITLE5=Love sweet love (feat. mr complex)
TTITLE6=In the hands of the gods (feat. biz markie)
TTITLE7=Shallow end
TTITLE8=Be yourself
TTITLE9=Coming down gently
TTITLE10=Good girl down (feat. bahamadia)
TTITLE11=Fragments of freedom
EXTD=
EXTT0=
EXTT1=
EXTT2=
EXTT3=
EXTT4=
EXTT5=
EXTT6=
EXTT7=
EXTT8=
EXTT9=
EXTT10=
EXTT11=
PLAYORDER=
